<svg viewBox="0 0 800 600" xmlns="http://www.w3.org/2000/svg" fill-rule="evenodd" clip-rule="evenodd" stroke-linejoin="round" stroke-miterlimit="2"><path d="M586.783 185.684c0-8.488-6.596-14.607-15.636-14.607h-18.686v51.446h2.407v-22.324h15.783l13.339 22.324h2.738L573.3 200.08c7.916-.89 13.483-6.681 13.483-14.396zm-31.915-12.292h16.187c7.754 0 13.284 5.163 13.284 12.274 0 7.074-5.475 12.218-13.284 12.218h-16.187v-24.492zm66.806 49.903c15.471 0 26.532-11.336 26.532-26.44 0-15.158-11.061-26.55-26.532-26.55-15.47 0-26.531 11.447-26.531 26.55 0 15.048 11.061 26.44 26.531 26.44zm0-2.37c-14.037 0-24.088-10.4-24.088-24.07 0-13.725 10.051-24.179 24.088-24.179 14.038 0 24.088 10.381 24.088 24.179 0 13.744-10.05 24.07-24.088 24.07zm65.613-49.848h-35.958v2.297h16.776v49.149h2.407v-49.149h16.775v-2.297zm29.636 52.218c15.471 0 26.532-11.336 26.532-26.44 0-15.158-11.061-26.55-26.532-26.55-15.47 0-26.531 11.447-26.531 26.55 0 15.048 11.061 26.44 26.531 26.44zm0-2.37c-14.037 0-24.088-10.4-24.088-24.07 0-13.725 10.051-24.179 24.088-24.179 14.038 0 24.088 10.381 24.088 24.179 0 13.744-10.05 24.07-24.088 24.07zm72.852-35.241c0-8.488-6.596-14.607-15.636-14.607h-18.686v51.446h2.407v-22.324h15.784l13.338 22.324h2.738l-13.428-22.443c7.916-.89 13.483-6.681 13.483-14.396zm-31.915-12.292h16.187c7.754 0 13.284 5.163 13.284 12.274 0 7.074-5.475 12.218-13.284 12.218H757.86v-24.492z" fill-rule="nonzero"/><g><path d="M752.021 303.423c0 8.488 6.596 14.607 15.636 14.607h18.686v-51.447h-2.407v22.324h-15.783l-13.339-22.324h-2.738l13.428 22.443c-7.916.891-13.483 6.682-13.483 14.397zm31.915 12.292h-16.187c-7.754 0-13.284-5.163-13.284-12.274 0-7.074 5.475-12.219 13.284-12.219h16.187v24.493zm-66.806-49.903c-15.471 0-26.532 11.336-26.532 26.439 0 15.159 11.061 26.55 26.532 26.55 15.47 0 26.531-11.447 26.531-26.55 0-15.048-11.061-26.439-26.531-26.439zm0 2.37c14.037 0 24.088 10.399 24.088 24.069 0 13.725-10.051 24.18-24.088 24.18-14.038 0-24.088-10.381-24.088-24.18 0-13.743 10.05-24.069 24.088-24.069zm-65.613 49.848h35.958v-2.297h-16.776v-49.15h-2.407v49.15h-16.775v2.297zm-29.636-52.218c-15.471 0-26.532 11.336-26.532 26.439 0 15.159 11.061 26.55 26.532 26.55 15.47 0 26.531-11.447 26.531-26.55 0-15.048-11.061-26.439-26.531-26.439zm0 2.37c14.037 0 24.088 10.399 24.088 24.069 0 13.725-10.051 24.18-24.088 24.18-14.038 0-24.088-10.381-24.088-24.18 0-13.743 10.05-24.069 24.088-24.069zm-72.852 35.241c0 8.488 6.596 14.607 15.636 14.607h18.686v-51.447h-2.407v22.324H565.16l-13.338-22.324h-2.738l13.428 22.443c-7.916.891-13.483 6.682-13.483 14.397zm31.915 12.292h-16.187c-7.754 0-13.284-5.163-13.284-12.274 0-7.074 5.475-12.219 13.284-12.219h16.187v24.493z" fill-rule="nonzero"/></g><g><path d="M610.878 326.995c-8.489 0-14.607 6.596-14.607 15.636v18.686h51.446v-2.407h-22.324v-15.784l22.324-13.338v-2.738l-22.443 13.427c-.891-7.915-6.681-13.482-14.396-13.482zm-12.292 31.915v-16.187c0-7.754 5.163-13.285 12.274-13.285 7.073 0 12.218 5.476 12.218 13.285v16.187h-24.492zm49.903-66.807c0-15.47-11.337-26.531-26.44-26.531-15.158 0-26.55 11.061-26.55 26.531 0 15.471 11.447 26.532 26.55 26.532 15.048 0 26.44-11.061 26.44-26.532zm-2.37 0c0 14.038-10.4 24.088-24.07 24.088-13.725 0-24.18-10.05-24.18-24.088 0-14.037 10.381-24.088 24.18-24.088 13.744 0 24.07 10.051 24.07 24.088zm-49.848-65.612v35.957h2.297v-16.775h49.149v-2.407h-49.149v-16.775h-2.297zm52.218-29.637c0-15.471-11.337-26.531-26.44-26.531-15.158 0-26.55 11.06-26.55 26.531 0 15.471 11.447 26.532 26.55 26.532 15.048 0 26.44-11.061 26.44-26.532zm-2.37 0c0 14.038-10.4 24.088-24.07 24.088-13.725 0-24.18-10.05-24.18-24.088 0-14.037 10.381-24.088 24.18-24.088 13.744 0 24.07 10.051 24.07 24.088zm-35.241-72.851c-8.489 0-14.607 6.596-14.607 15.636v18.686h51.446v-2.407h-22.324v-15.784l22.324-13.339v-2.737l-22.443 13.427c-.891-7.915-6.681-13.482-14.396-13.482zm-12.292 31.915V139.73c0-7.753 5.163-13.284 12.274-13.284 7.073 0 12.218 5.476 12.218 13.284v16.188h-24.492z" fill-rule="nonzero"/></g><g><path d="M728.285 162.138c8.489 0 14.607-6.596 14.607-15.636v-18.686h-51.446v2.407h22.324v15.784l-22.324 13.338v2.738l22.443-13.428c.891 7.916 6.682 13.483 14.396 13.483zm12.292-31.915v16.187c0 7.754-5.163 13.284-12.273 13.284-7.074 0-12.219-5.475-12.219-13.284v-16.187h24.492zm-49.902 66.807c0 15.47 11.336 26.531 26.439 26.531 15.158 0 26.55-11.061 26.55-26.531 0-15.471-11.447-26.532-26.55-26.532-15.048 0-26.439 11.061-26.439 26.532zm2.37 0c0-14.038 10.399-24.088 24.069-24.088 13.725 0 24.18 10.05 24.18 24.088 0 14.037-10.381 24.087-24.18 24.087-13.743 0-24.069-10.05-24.069-24.087zm49.847 65.612v-35.957h-2.296v16.775h-49.15v2.407h49.15v16.775h2.296zm-52.217 29.637c0 15.47 11.336 26.531 26.439 26.531 15.158 0 26.55-11.061 26.55-26.531 0-15.471-11.447-26.532-26.55-26.532-15.048 0-26.439 11.061-26.439 26.532zm2.37 0c0-14.038 10.399-24.088 24.069-24.088 13.725 0 24.18 10.05 24.18 24.088 0 14.037-10.381 24.087-24.18 24.087-13.743 0-24.069-10.05-24.069-24.087zm35.24 72.851c8.489 0 14.607-6.596 14.607-15.636v-18.686h-51.446v2.407h22.324v15.784l-22.324 13.338v2.738l22.443-13.428c.891 7.916 6.682 13.483 14.396 13.483zm12.292-31.915v16.187c0 7.754-5.163 13.284-12.273 13.284-7.074 0-12.219-5.475-12.219-13.284v-16.187h24.492z" fill-rule="nonzero"/></g></svg>