<svg clip-rule="evenodd" fill-rule="evenodd" stroke-linejoin="round" stroke-miterlimit="2" viewBox="0 0 241 242" xmlns="http://www.w3.org/2000/svg"><g fill-rule="nonzero"><path d="m37.754 61.682c0-8.489-6.596-14.607-15.636-14.607h-18.686v51.446h2.407v-22.324h15.783l13.339 22.324h2.738l-13.428-22.443c7.915-.891 13.483-6.682 13.483-14.396zm-31.915-12.292h16.187c7.753 0 13.284 5.163 13.284 12.273 0 7.074-5.475 12.219-13.284 12.219h-16.187zm66.806 49.902c15.471 0 26.532-11.336 26.532-26.439 0-15.158-11.061-26.55-26.532-26.55-15.47 0-26.531 11.447-26.531 26.55 0 15.048 11.061 26.439 26.531 26.439zm0-2.37c-14.037 0-24.088-10.399-24.088-24.069 0-13.725 10.051-24.18 24.088-24.18 14.038 0 24.088 10.381 24.088 24.18 0 13.743-10.05 24.069-24.088 24.069zm65.613-49.847h-35.958v2.296h16.775v49.15h2.407v-49.15h16.776zm29.636 52.217c15.471 0 26.532-11.336 26.532-26.439 0-15.158-11.061-26.55-26.532-26.55-15.47 0-26.531 11.447-26.531 26.55 0 15.048 11.061 26.439 26.531 26.439zm0-2.37c-14.037 0-24.088-10.399-24.088-24.069 0-13.725 10.051-24.18 24.088-24.18 14.038 0 24.088 10.381 24.088 24.18 0 13.743-10.05 24.069-24.088 24.069zm72.852-35.24c0-8.489-6.596-14.607-15.636-14.607h-18.686v51.446h2.407v-22.324h15.783l13.339 22.324h2.738l-13.428-22.443c7.916-.891 13.483-6.682 13.483-14.396zm-31.915-12.292h16.187c7.754 0 13.284 5.163 13.284 12.273 0 7.074-5.475 12.219-13.284 12.219h-16.187z"/><path d="m202.992 179.42c0 8.489 6.596 14.607 15.636 14.607h18.686v-51.446h-2.407v22.324h-15.784l-13.338-22.324h-2.738l13.428 22.443c-7.916.891-13.483 6.681-13.483 14.396zm31.915 12.292h-16.187c-7.754 0-13.284-5.163-13.284-12.274 0-7.074 5.475-12.218 13.284-12.218h16.187zm-66.806-49.903c-15.471 0-26.532 11.337-26.532 26.44 0 15.158 11.061 26.55 26.532 26.55 15.47 0 26.531-11.447 26.531-26.55 0-15.048-11.061-26.44-26.531-26.44zm0 2.37c14.037 0 24.087 10.4 24.087 24.07 0 13.725-10.05 24.18-24.087 24.18-14.038 0-24.088-10.382-24.088-24.18 0-13.744 10.05-24.07 24.088-24.07zm-65.613 49.848h35.957v-2.297h-16.775v-49.149h-2.407v49.149h-16.775zm-29.636-52.218c-15.471 0-26.532 11.337-26.532 26.44 0 15.158 11.061 26.55 26.532 26.55 15.47 0 26.531-11.447 26.531-26.55 0-15.048-11.061-26.44-26.531-26.44zm0 2.37c14.037 0 24.087 10.4 24.087 24.07 0 13.725-10.05 24.18-24.087 24.18-14.038 0-24.088-10.382-24.088-24.18 0-13.744 10.05-24.07 24.088-24.07zm-72.852 35.241c0 8.489 6.596 14.607 15.636 14.607h18.686v-51.446h-2.407v22.324h-15.784l-13.338-22.324h-2.738l13.428 22.443c-7.916.891-13.483 6.681-13.483 14.396zm31.915 12.292h-16.187c-7.754 0-13.284-5.163-13.284-12.274 0-7.074 5.475-12.218 13.284-12.218h16.187z"/><path d="m61.849 202.992c-8.489 0-14.607 6.596-14.607 15.636v18.686h51.446v-2.407h-22.324v-15.784l22.324-13.338v-2.738l-22.443 13.428c-.891-7.916-6.681-13.483-14.396-13.483zm-12.292 31.915v-16.187c0-7.754 5.163-13.284 12.273-13.284 7.074 0 12.219 5.475 12.219 13.284v16.187zm49.903-66.806c0-15.471-11.337-26.532-26.44-26.532-15.158 0-26.55 11.061-26.55 26.532 0 15.47 11.447 26.531 26.55 26.531 15.048 0 26.44-11.061 26.44-26.531zm-2.371 0c0 14.037-10.399 24.087-24.069 24.087-13.725 0-24.18-10.05-24.18-24.087 0-14.038 10.381-24.088 24.18-24.088 13.743 0 24.069 10.05 24.069 24.088zm-49.847-65.613v35.957h2.296v-16.775h49.15v-2.407h-49.15v-16.775zm52.218-29.636c0-15.471-11.337-26.532-26.44-26.532-15.158 0-26.55 11.061-26.55 26.532 0 15.47 11.447 26.531 26.55 26.531 15.048 0 26.44-11.061 26.44-26.531zm-2.371 0c0 14.037-10.399 24.087-24.069 24.087-13.725 0-24.18-10.05-24.18-24.087 0-14.038 10.381-24.088 24.18-24.088 13.743 0 24.069 10.05 24.069 24.088zm-35.24-72.852c-8.489 0-14.607 6.596-14.607 15.636v18.686h51.446v-2.407h-22.324v-15.784l22.324-13.338v-2.738l-22.443 13.428c-.891-7.916-6.681-13.483-14.396-13.483zm-12.292 31.915v-16.187c0-7.754 5.163-13.284 12.273-13.284 7.074 0 12.219 5.475 12.219 13.284v16.187z"/><path d="m179.256 38.135c8.489 0 14.607-6.596 14.607-15.636v-18.686h-51.446v2.407h22.324v15.784l-22.324 13.339v2.737l22.443-13.427c.891 7.915 6.682 13.482 14.396 13.482zm12.292-31.915v16.188c0 7.753-5.163 13.284-12.273 13.284-7.074 0-12.219-5.476-12.219-13.284v-16.188zm-49.903 66.807c0 15.471 11.337 26.532 26.44 26.532 15.158 0 26.55-11.061 26.55-26.532s-11.447-26.532-26.55-26.532c-15.048 0-26.44 11.061-26.44 26.532zm2.371 0c0-14.038 10.399-24.088 24.069-24.088 13.725 0 24.18 10.05 24.18 24.088 0 14.037-10.381 24.088-24.18 24.088-13.743 0-24.069-10.051-24.069-24.088zm49.847 65.612v-35.957h-2.296v16.775h-49.15v2.407h49.15v16.775zm-52.218 29.637c0 15.471 11.337 26.532 26.44 26.532 15.158 0 26.55-11.061 26.55-26.532s-11.447-26.532-26.55-26.532c-15.048 0-26.44 11.061-26.44 26.532zm2.371 0c0-14.037 10.399-24.088 24.069-24.088 13.725 0 24.18 10.051 24.18 24.088s-10.381 24.088-24.18 24.088c-13.743 0-24.069-10.051-24.069-24.088zm35.24 72.852c8.489 0 14.607-6.597 14.607-15.636v-18.686h-51.446v2.406h22.324v15.784l-22.324 13.339v2.737l22.443-13.427c.891 7.915 6.682 13.483 14.396 13.483zm12.292-31.916v16.188c0 7.753-5.163 13.284-12.273 13.284-7.074 0-12.219-5.476-12.219-13.284v-16.188z"/></g></svg>