<svg clip-rule="evenodd" fill-rule="evenodd" stroke-linejoin="round" stroke-miterlimit="2" viewBox="0 0 1024 768" xmlns="http://www.w3.org/2000/svg"><path d="m0 0h1024v768h-1024z" fill="none"/><g fill-rule="nonzero"><path d="m764.072 473.31 27.461-4.806v2.596l-20.034 3.523 20.034 3.542v2.264l-24.343 10.659 21.864 9.676v.957l-21.89 9.674 24.369 10.739v2.303l-19.762 3.458 19.762 3.509v2.596l-27.184-4.806-27.461 4.806v-2.596l20.035-3.523-20.035-3.541v-2.264l24.343-10.66-21.864-9.676v-.956l21.89-9.675-24.369-10.739v-2.303l19.762-3.458-19.762-3.509v-2.596zm-22.222 49.272 22.493 3.994 22.288-3.919-22.46-9.939zm2.215-21.367 20.166 8.887 20.126-8.812-20.167-8.888zm-2.274-21.368 22.459 9.94 22.321-9.865-22.493-3.994zm22.624-54.796 27.118-11.816v2.771l-15.828 6.867v6.968l15.828 6.716v2.205l-15.828 6.896v7.294l15.828 6.751v2.732l-27.527-11.679-27.118 11.815v-2.771l15.828-6.866v-6.969l-15.828-6.715v-2.206l15.828-6.896v-7.293l-15.828-6.751v-2.732zm8.89 21.653-6.109 2.662 6.109 2.586zm-18.189 5.211 5.742-2.495-5.742-2.436zm0-20.119v12.455l8.932 3.782 9.257-4.022v-12.456l-8.932-3.782zm-14.518 6.309 12.118 5.13v-10.396zm35.107-5.534v10.397l12.118-5.266zm-20.589-3.469 6.109-2.661-6.109-2.587zm12.447-2.715 5.742 2.436v-4.932zm-20.952-61.298c4.643-3.799 10.686-5.991 17.541-5.991 6.87 0 12.929 2.196 17.59 5.991h9.791v16.101c0 .955-.041 1.894-.12 2.818.079.917.12 1.852.12 2.802v16.101h-9.723c-4.643 3.799-10.686 5.991-17.541 5.991-6.87 0-12.929-2.196-17.59-5.991h-9.791v-16.101c0-.955.041-1.894.12-2.818-.079-.917-.12-1.852-.12-2.802v-16.101zm30.688 37.822h-26.094c3.734 2.178 8.175 3.396 13.064 3.396 4.879 0 9.308-1.216 13.03-3.396zm-37.971-2.557h4.642c-1.902-2.078-3.47-4.479-4.642-7.143zm41.456-32.708h-33.212c-4.512 3.948-7.452 9.63-8.106 16.345.656 6.709 3.622 12.406 8.171 16.363h33.212c4.513-3.948 7.452-9.63 8.106-16.345-.656-6.709-3.622-12.406-8.171-16.363zm8.309 25.617c-1.161 2.645-2.71 5.028-4.588 7.091h4.588zm-4.642-25.617c1.902 2.078 3.47 4.479 4.642 7.143v-7.143zm-45.123 0v7.091c1.161-2.645 2.71-5.028 4.588-7.091zm37.888-2.557c-3.734-2.178-8.175-3.396-13.064-3.396-4.879 0-9.308 1.216-13.03 3.396zm-12.801-47.845 27.118-11.815v2.771l-15.828 6.866v6.969l15.828 6.715v2.206l-15.828 6.896v7.293l15.828 6.751v2.732l-27.527-11.679-27.118 11.816v-2.771l15.828-6.867v-6.968l-15.828-6.716v-2.205l15.828-6.896v-7.294l-15.828-6.751v-2.732zm8.89 21.654-6.109 2.661 6.109 2.587zm-18.189 5.211 5.742-2.496-5.742-2.436zm0-20.12v12.456l8.932 3.782 9.257-4.023v-12.455l-8.932-3.782zm-14.518 6.309 12.118 5.131v-10.397zm35.107-5.533v10.396l12.118-5.266zm-20.589-3.469 6.109-2.662-6.109-2.586zm12.447-2.716 5.742 2.436v-4.931zm-3.491-79.774 27.461-4.806v2.596l-20.034 3.523 20.034 3.541v2.264l-24.343 10.66 21.864 9.676v.956l-21.89 9.675 24.369 10.739v2.303l-19.762 3.458 19.762 3.509v2.596l-27.184-4.806-27.461 4.806v-2.596l20.035-3.523-20.035-3.542v-2.264l24.343-10.659-21.864-9.676v-.957l21.89-9.674-24.369-10.739v-2.303l19.762-3.458-19.762-3.509v-2.596zm-22.222 49.272 22.493 3.994 22.288-3.919-22.46-9.94zm2.215-21.368 20.166 8.888 20.126-8.813-20.167-8.887zm-2.274-21.367 22.459 9.939 22.321-9.864-22.493-3.994z"/><path d="m557.812 613.26 11.717-27.617h2.429l11.423 26.217v-26.217h2.816v27.541h10.234l13.129-15.374v-12.167h2.817v8.87l7.574-8.87h3.634l-11.208 13.122v14.419h10.233l23.521-27.541h3.633l-24.638 28.846 26.874 31.352h-3.655l-25.73-29.97h-10.238v14.286l13.444 15.684h-3.655l-9.789-11.401v11.401h-2.817v-14.682l-13.125-15.288h-10.238v2.453l11.99 27.517h-3.053l-7.564-17.435h-1.373v17.435h-2.816v-17.435h-18.97l7.597 17.435h-3.053l-7.564-17.435h-6.956l-7.437 17.435h-3.01l7.397-17.435h-23.13l-6.261 14.679v2.756h-4.186l1.305-3.075v-20.652l-11.598-18.421-11.701 18.369v20.538l1.413 3.241h-4.294v-2.858l-6.324-14.577h-23.159l7.597 17.435h-3.053l-7.564-17.435h-6.956l-7.437 17.435h-3.01l7.398-17.435h-23.131l-.538 1.262 13.863 16.173h-3.655l-11.429-13.311-5.678 13.311h-3.009l6.653-15.681-12.267-14.289h-10.238v14.286l13.444 15.684h-3.655l-9.789-11.401v11.401h-2.817v-14.682l-13.125-15.288h-10.238v29.97h-2.816v-60.198h2.816v27.541h10.234l13.129-15.374v-12.167h2.817v8.87l7.574-8.87h3.634l-11.208 13.122v14.419h10.234l23.52-27.541h3.633l-24.638 28.846 10.973 12.802 17.671-41.648h2.429l12.033 27.617 11.717-27.617h4.543l21.288 33.71 11.555-18.139-9.802-15.571h3.139l8.255 13.072 8.327-13.072h3.139l-9.903 15.548 11.469 18.162 21.475-33.71h3.726l12.033 27.617zm-84.51-22.328 19.631 45.056v-13.874zm48.692 31.13v13.914l17.68-41.671zm-134.429-7.573 10.614 12.383v-24.81zm211.381 0 10.614 12.383v-24.81zm-42.605 2.236-11.73-26.995-15.255 36.031h23.151zm-100.96 0-11.731-26.995-15.255 36.031h23.152zm3 .046 3.917 8.99h23.189l-15.657-36.031zm-3.806 8.99h4.733l-2.398-5.517zm131.622-.576v.576h.251zm-26.855-8.414 3.917 8.99h20.122v-7.057l-12.591-28.974zm-3.807 8.99h4.733l-2.397-5.517z"/><path d="m820.144 142.571c-4.071-1.339-7.336-3.575-7.336-8.726 0-6.298 4.979-10.366 12.623-10.366 7.406 0 12.231 4.334 12.231 10.927h-1.823c0-5.555-4.194-9.145-10.436-9.145-1.687 0-3.225.227-4.577.654-3.841 1.215-6.181 4.045-6.181 7.873 0 5.528 4.799 6.948 10.116 8.134h.151c3.066.007 6.206.657 8.792 2.369.463.306.902.645 1.318 1.014l.053.047c2.179 1.489 3.625 3.703 3.625 7.274 0 .211-.005.421-.016.627.011.222.016.447.016.675h-.071c-.498 4.497-3.587 7.774-8.121 9.101 4.071 1.339 7.336 3.575 7.336 8.726 0 6.298-4.979 10.366-12.623 10.366-7.406 0-12.231-4.334-12.231-10.927h1.823c0 5.555 4.194 9.145 10.436 9.145 6.48 0 10.758-3.352 10.758-8.527 0-5.528-4.799-6.948-10.116-8.134h-.151c-3.066-.007-6.206-.657-8.792-2.369-.463-.306-.902-.645-1.318-1.014l-.052-.047c-2.18-1.489-3.626-3.703-3.626-7.274 0-.211.006-.421.016-.627-.01-.222-.016-.447-.016-.675h.071c.498-4.497 3.587-7.774 8.121-9.101zm-116.505-.649c5.317-1.186 10.116-2.606 10.116-8.134 0-5.175-4.278-8.527-10.758-8.527-6.242 0-10.436 3.59-10.436 9.145h-1.823c0-6.593 4.825-10.927 12.231-10.927 7.644 0 12.623 4.068 12.623 10.366 0 5.151-3.265 7.387-7.336 8.726 4.535 1.327 7.623 4.605 8.121 9.101h.071c0 .228-.006.453-.016.675.01.206.016.416.016.627 0 3.571-1.446 5.785-3.626 7.274-2.419 2.186-5.929 3.43-10.162 3.43h-.151c-5.317 1.186-10.116 2.606-10.116 8.134 0 5.175 4.278 8.527 10.758 8.527 6.242 0 10.436-3.59 10.436-9.145h1.823c0 6.593-4.825 10.927-12.231 10.927-7.644 0-12.623-4.068-12.623-10.366 0-5.151 3.265-7.387 7.336-8.726-4.535-1.327-7.623-4.605-8.121-9.101h-.071c0-.228.005-.453.016-.675-.011-.206-.016-.416-.016-.627 0-3.571 1.446-5.785 3.625-7.274 2.42-2.186 5.93-3.43 10.163-3.43zm29.346.463v-16.69h-12.806v-1.753h27.449v1.753h-12.806v37.52h-.056v16.69h12.806v1.753h-27.449v-1.753h12.806v-37.52zm60.649 0v-16.69h-12.806v-1.753h27.449v1.753h-12.806v37.52h-.056v16.69h12.806v1.753h-27.449v-1.753h12.806v-37.52zm-17.207 7.945 3.447-7.945h1.992l-4.464 10.244 4.492 10.586h-1.964l-3.532-8.281-11.644 26.724h-1.585l-11.196-26.388-3.447 7.945h-1.992l4.464-10.244-4.492-10.586h1.964l3.532 8.281 11.644-26.724h1.585zm-12.435 28.662 10.215-23.507h-20.167zm-60.198-35.258c-.275.061-.551.121-.825.181-3.177.705-6.247 1.378-8.397 2.83-1.745 1.603-2.803 3.784-2.98 6.391.263 5.136 4.607 8.613 10.762 8.73.275-.061.551-.121.825-.181 3.177-.705 6.247-1.378 8.397-2.83 1.744-1.603 2.802-3.784 2.98-6.391-.263-5.136-4.607-8.613-10.762-8.73zm120.812 0c-6.155.117-10.499 3.594-10.762 8.73.178 2.607 1.236 4.788 2.98 6.391 2.15 1.452 5.22 2.125 8.397 2.83.274.06.55.12.825.181 6.155-.117 10.499-3.594 10.762-8.73-.178-2.607-1.236-4.788-2.98-6.391-2.15-1.452-5.22-2.125-8.397-2.83-.274-.06-.55-.12-.825-.181zm-49.184 8.912-.344-.806h-21.617l-.483 1.114.344.806h21.617zm-11.014-26.038-10.215 23.507h20.167z"/><path d="m240.7 129.506h.029c10.629 0 19.603 6.685 21.566 15.984h-.021c.674 2.286 1.034 4.752 1.034 7.351 0 6.021-1.882 11.321-5.16 15.333-3.978 4.966-10.098 7.92-17.386 7.92h-.062-.062c-7.288 0-13.408-2.954-17.386-7.92-3.278-4.012-5.16-9.312-5.16-15.333 0-2.599.36-5.065 1.034-7.351h-.021c1.963-9.299 10.937-15.984 21.566-15.984zm-87.005.033.122-.001c1.374 0 2.671.129 3.881.377 6.468 1.252 10.48 5.535 10.48 11.615 0 6.572-4.595 9.043-9.968 10.544 5.524 1.449 10.415 3.701 10.915 10.081h.043c0 .19-.004.378-.01.565.006.177.01.356.01.538 0 7.725-6.248 12.787-14.994 12.787-.161 0-.321-.001-.479-.004-.158.003-.318.004-.479.004-8.746 0-14.994-5.062-14.994-12.787 0-.182.004-.361.01-.538-.006-.187-.01-.375-.01-.565h.042c.501-6.38 5.392-8.632 10.916-10.081-5.374-1.501-9.968-3.972-9.968-10.544 0-6.08 4.012-10.363 10.479-11.615 1.21-.248 2.508-.377 3.882-.377zm174.01 0 .122-.001c1.374 0 2.672.129 3.882.377 6.467 1.252 10.479 5.535 10.479 11.615 0 6.572-4.594 9.043-9.968 10.544 5.524 1.449 10.415 3.701 10.916 10.081h.042c0 .19-.004.378-.01.565.006.177.01.356.01.538 0 7.725-6.248 12.787-14.994 12.787-.161 0-.321-.001-.479-.004-.158.003-.318.004-.479.004-8.746 0-14.994-5.062-14.994-12.787 0-.182.004-.361.01-.538-.006-.187-.01-.375-.01-.565h.043c.5-6.38 5.392-8.632 10.915-10.081-5.373-1.501-9.968-3.972-9.968-10.544 0-6.08 4.012-10.363 10.48-11.615 1.21-.248 2.507-.377 3.881-.377zm-121.504 32.811h-24.6l-5.709 13.16h-2.587l19.278-45.436h2.635l19.278 45.436h-2.586zm93.598 0h-24.6l-5.709 13.16h-2.586l19.278-45.436h2.635l19.278 45.436h-2.587zm-79.197-6.102c.182 1.773.56 3.451 1.115 5.017 2.914 7.748 9.936 12.713 18.983 12.736 9.046-.023 16.069-4.988 18.983-12.736.555-1.566.933-3.244 1.115-5.017zm107.103-3.093-.122.026c-6.686 1.484-12.964 2.843-13.171 9.74.373 6.589 5.571 10.862 13.293 11.026 7.721-.163 12.92-4.436 13.293-11.026-.207-6.897-6.485-8.256-13.171-9.74zm-174.01 0-.122.026c-6.686 1.484-12.964 2.843-13.171 9.74.373 6.589 5.57 10.862 13.293 11.026 7.721-.163 12.92-4.436 13.293-11.026-.207-6.897-6.485-8.256-13.171-9.74zm122.352 7.199h22.905l-11.453-26.355zm-93.599 0h22.905l-11.452-26.355zm78.667-6.15c.023-.45.034-.904.034-1.363 0-12.264-8.636-21.211-20.449-21.242-11.813.031-20.449 8.978-20.449 21.242 0 .459.011.913.034 1.363zm-107.42-22.604c-.895.003-1.754.062-2.572.174-5.829.85-9.59 4.747-9.59 10.405h-.171c.417 6.02 6.163 7.486 12.333 8.841 6.169-1.355 11.916-2.821 12.333-8.841h-.171c0-5.658-3.761-9.555-9.591-10.405-.817-.112-1.676-.171-2.571-.174zm174.01 0c-.895.003-1.754.062-2.571.174-5.83.85-9.591 4.747-9.591 10.405h-.171c.417 6.02 6.164 7.486 12.333 8.841 6.169-1.355 11.916-2.821 12.333-8.841h-.171c0-5.658-3.761-9.555-9.59-10.405-.818-.112-1.677-.171-2.572-.174z"/><path d="m480.679 426.705v-7.79h21.447v8.274c0 1.601-.46 3.017-1.26 4.117l1.26.753v1.141l-1.91-1.142c-1.065 1.04-2.513 1.65-4.18 1.65-2.034 0-3.747-.929-4.825-2.446-1.081 1.228-2.635 1.961-4.443 1.961-1.337 0-2.533-.392-3.504-1.085l-2.585 1.547v-1.141l1.803-1.078c-1.132-1.163-1.803-2.828-1.803-4.761zm39.649-7.79h21.447v7.79c0 1.765-.56 3.307-1.518 4.447l1.518.907v1.141l-2.232-1.335c-1.027.861-2.353 1.358-3.858 1.358-1.917 0-3.549-.825-4.634-2.19-1.084 1.365-2.716 2.19-4.634 2.19-1.504 0-2.83-.497-3.857-1.358l-2.232 1.335v-1.141l1.518-.907c-.958-1.14-1.518-2.682-1.518-4.447zm-21.015 12.603-6.543-3.915c-.119 1.05-.444 2.002-.936 2.81.894 1.417 2.401 2.276 4.21 2.276 1.276 0 2.401-.427 3.269-1.171zm-15.077.039c.732.417 1.588.647 2.525.647 1.622 0 3.001-.69 3.913-1.853-.327-.681-.547-1.442-.639-2.264zm39.256-.25c.812.574 1.808.897 2.918.897 1.712 0 3.152-.769 4.06-2.051-.409-.75-.68-1.61-.786-2.55zm15.119 0-6.192-3.704c-.106.94-.378 1.8-.786 2.55.907 1.282 2.348 2.051 4.06 2.051 1.11 0 2.106-.323 2.918-.897zm-56.967-10.904v6.264c0 1.779.652 3.277 1.733 4.265l6.608-3.949v-6.58zm11.175 0v6.095l7.184 4.293c.733-.95 1.158-2.203 1.158-3.64v-6.748zm28.474-.484v6.748c0 1.605.531 2.982 1.429 3.961l6.912-4.13v-6.579zm19.517 0h-8.342v6.579l6.913 4.13c.898-.979 1.429-2.356 1.429-3.961zm-48.956.484h-.904v6.748c0 .783.125 1.51.354 2.163.355-.77.55-1.664.55-2.647zm39.649-.484h-.904v6.748c0 .888.16 1.704.452 2.421.293-.717.452-1.533.452-2.421zm-50.364-21.358c1.6-4.107 5.503-6.768 10.286-6.768 6.193 0 10.901 4.493 11.02 10.814.002.098.004.198.004.297l-.001.023.001.023c0 .077-.001.153-.003.229.001.053.001.106.001.159 0 6.449-4.749 11.06-11.068 11.06-6.053 0-10.655-4.262-11.001-10.322-.033-.369-.05-.745-.05-1.126v-.023-.023c0-1.558.284-3.022.811-4.343zm49.912-6.768h.023c3.724 0 6.911 1.624 8.886 4.294 1.397 1.849 2.196 4.197 2.196 6.817v.023.023c0 6.296-4.611 11.022-11.061 11.022-4.336 0-7.841-2.146-9.672-5.459-.907-1.623-1.417-3.543-1.417-5.66 0-6.449 4.749-11.06 11.022-11.06zm-20.307 1.368h-6.993v-.957h14.989v.957h-6.993v19.532h6.993v.957h-14.989v-.957h6.993zm-40.42-.957c1.765 0 3.307.559 4.447 1.518l.907-1.518h1.142l-1.336 2.231c.861 1.027 1.359 2.353 1.359 3.858 0 1.917-.825 3.55-2.191 4.634 1.366 1.084 2.191 2.717 2.191 4.634 0 1.505-.498 2.831-1.359 3.858l1.336 2.231h-1.142l-.907-1.518c-1.14.959-2.682 1.518-4.447 1.518h-7.79v-21.446zm84.623 0c1.765 0 3.307.559 4.447 1.518l.907-1.518h1.142l-1.336 2.231c.861 1.027 1.359 2.353 1.359 3.858 0 1.917-.825 3.55-2.191 4.634 1.366 1.084 2.191 2.717 2.191 4.634 0 1.505-.498 2.831-1.359 3.858l1.336 2.231h-1.142l-.907-1.518c-1.14.959-2.682 1.518-4.447 1.518h-7.79v-21.446zm-53.537 10.07c-.494-5.289-4.662-8.978-10.031-8.978-5.618 0-9.911 4.072-10.031 9.795v.014l.001.035c.139 5.701 4.418 9.755 10.076 9.755 3.994 0 7.296-2.036 8.929-5.252.691-1.39 1.072-2.989 1.076-4.716-.001-.22-.007-.438-.02-.653zm29.685-9.404c-5.844 0-10.03 4.347-10.041 10.057.004 2.515.819 4.766 2.23 6.498 1.814 2.162 4.57 3.463 7.767 3.47 5.741-.011 10.057-4.198 10.057-10.042 0-1.377-.241-2.662-.685-3.822-1.432-3.69-4.905-6.161-9.328-6.161zm-67.557 11.474v8.341h6.748c1.605 0 2.982-.531 3.962-1.429l-4.13-6.912zm84.623 0v8.341h6.748c1.605 0 2.982-.531 3.962-1.429l-4.13-6.912zm10.234-.836c-.749.409-1.61.681-2.55.786l3.705 6.192c.574-.811.897-1.807.897-2.917 0-1.712-.769-3.153-2.052-4.061zm-84.623 0c-.749.409-1.61.681-2.55.786l3.705 6.192c.574-.811.897-1.807.897-2.917 0-1.712-.769-3.153-2.052-4.061zm74.389-1.033v.904h6.748c.888 0 1.704-.16 2.421-.452-.717-.292-1.533-.452-2.421-.452zm-84.623 0v.904h6.748c.888 0 1.704-.16 2.421-.452-.717-.292-1.533-.452-2.421-.452zm11.389-7.107-3.705 6.192c.94.105 1.801.377 2.55.786 1.283-.908 2.052-2.349 2.052-4.061 0-1.109-.323-2.105-.897-2.917zm84.623 0-3.705 6.192c.94.105 1.801.377 2.55.786 1.283-.908 2.052-2.349 2.052-4.061 0-1.109-.323-2.105-.897-2.917zm-96.012-2.199v8.341h6.58l4.13-6.912c-.98-.898-2.357-1.429-3.962-1.429zm84.623 0v8.341h6.58l4.13-6.912c-.98-.898-2.357-1.429-3.962-1.429zm-67.482-2.671v-14.99h.957v6.994h19.532v-6.509h.958v14.99h-.958v-6.993h-19.532v6.508zm40.606-6.993v6.993h-.957v-14.99h.957v6.994h19.532v-6.994h.958v14.99h-.958v-6.993zm-29.821-31.731c6.409.036 10.985 4.75 10.985 11.022l-.001.023.001.023c0 .066-.001.132-.002.198v.106c0 .081 0 .162-.002.243.002.08.002.161.002.241 0 6.45-4.749 11.061-11.068 11.061-6.271 0-10.984-4.574-11.022-10.983-.019-.285-.029-.574-.029-.866v-.023-.023c0-6.249 4.575-10.985 10.985-11.022l.075-.001zm39.707 0c6.41.036 10.985 4.75 10.985 11.022v.023.023c0 .818-.078 1.61-.228 2.369-.894 5.346-5.253 8.995-10.854 8.995h-.023-.023c-6.296 0-11.022-4.611-11.022-11.06 0-.422.021-.836.06-1.241.413-5.803 4.852-10.096 10.954-10.131l.075-.001zm15.986 21.768v-21.447h7.79c1.765 0 3.307.56 4.447 1.518l.907-1.518h1.142l-1.336 2.232c.861 1.027 1.359 2.353 1.359 3.858 0 1.917-.825 3.549-2.191 4.634 1.366 1.084 2.191 2.716 2.191 4.634 0 1.504-.498 2.83-1.359 3.857l1.336 2.232h-1.142l-.907-1.518c-1.14.958-2.682 1.518-4.447 1.518zm-36.413-20.489h-6.993v-.958h14.989v.958h-6.993v19.532h6.993v.957h-14.989v-.957h6.993zm-40.42-.958c1.765 0 3.307.56 4.447 1.518l.907-1.518h1.142l-1.336 2.232c.861 1.027 1.359 2.353 1.359 3.858 0 1.917-.825 3.549-2.191 4.634 1.366 1.084 2.191 2.716 2.191 4.634 0 1.504-.498 2.83-1.359 3.857l1.336 2.232h-1.142l-.907-1.518c-1.14.958-2.682 1.518-4.447 1.518h-7.79v-21.447zm31.106 10.707c-.391-5.415-4.603-9.213-10.051-9.213-5.557 0-9.818 3.984-10.026 9.608.191 5.523 4.321 9.679 10.035 9.679 5.844 0 10.031-4.317 10.042-10.057zm29.621-9.698c-4.937.01-8.855 3.141-9.825 7.767-.112.628-.171 1.278-.172 1.948.011 5.71 4.197 10.057 10.041 10.057 5.467 0 9.483-3.777 9.988-8.964.017-.252.025-.508.025-.766 0-5.844-4.347-10.031-10.057-10.042zm17.11 11.132v8.341h6.748c1.605 0 2.982-.531 3.962-1.429l-4.13-6.912zm-84.623 0v8.341h6.748c1.605 0 2.982-.531 3.962-1.429l-4.13-6.912zm94.857-.836c-.749.409-1.61.68-2.55.786l3.705 6.192c.574-.812.897-1.808.897-2.918 0-1.712-.769-3.152-2.052-4.06zm-84.623 0c-.749.409-1.61.68-2.55.786l3.705 6.192c.574-.812.897-1.808.897-2.918 0-1.712-.769-3.152-2.052-4.06zm-10.234-1.033v.903h6.748c.888 0 1.704-.159 2.421-.451-.717-.293-1.533-.452-2.421-.452zm84.623 0v.903h6.748c.888 0 1.704-.159 2.421-.451-.717-.293-1.533-.452-2.421-.452zm-73.234-7.108-3.705 6.192c.94.106 1.801.378 2.55.786 1.283-.907 2.052-2.348 2.052-4.06 0-1.11-.323-2.106-.897-2.918zm84.623 0-3.705 6.192c.94.106 1.801.378 2.55.786 1.283-.907 2.052-2.348 2.052-4.06 0-1.11-.323-2.106-.897-2.918zm-11.389-2.199v8.342h6.58l4.13-6.913c-.98-.898-2.357-1.429-3.962-1.429zm-84.623 0v8.342h6.58l4.13-6.913c-.98-.898-2.357-1.429-3.962-1.429zm17.141-10.978v-7.79h21.447v8.275c0 1.6-.46 3.016-1.26 4.116l1.26.753v1.141l-1.91-1.142c-1.065 1.04-2.513 1.65-4.18 1.65-2.034 0-3.747-.929-4.825-2.446-1.081 1.228-2.635 1.961-4.443 1.961-1.337 0-2.533-.392-3.504-1.085l-2.585 1.547v-1.141l1.803-1.077c-1.132-1.164-1.803-2.829-1.803-4.762zm61.096-7.79v7.79c0 1.765-.56 3.307-1.518 4.447l1.518.907v1.141l-2.232-1.335c-1.027.861-2.353 1.358-3.858 1.358-1.917 0-3.549-.825-4.634-2.19-1.084 1.365-2.716 2.19-4.634 2.19-1.504 0-2.83-.497-3.857-1.358l-2.232 1.335v-1.141l1.518-.907c-.958-1.14-1.518-2.682-1.518-4.447v-7.79zm-42.462 12.603-6.543-3.915c-.119 1.05-.444 2.002-.936 2.81.894 1.417 2.401 2.276 4.21 2.276 1.276 0 2.401-.427 3.269-1.171zm24.179-.211c.812.574 1.808.898 2.918.898 1.712 0 3.152-.77 4.06-2.052-.409-.75-.68-1.61-.786-2.55zm-39.256.25c.732.417 1.588.648 2.525.648 1.622 0 3.001-.691 3.913-1.854-.327-.681-.547-1.442-.639-2.264zm54.375-.25-6.192-3.704c-.106.94-.378 1.8-.786 2.55.907 1.282 2.348 2.052 4.06 2.052 1.11 0 2.106-.324 2.918-.898zm-56.967-10.904v6.264c0 1.779.652 3.277 1.733 4.265l6.608-3.949v-6.58zm11.175 0v6.095l7.184 4.293c.733-.95 1.158-2.203 1.158-3.64v-6.748zm28.474-.484v6.748c0 1.605.531 2.982 1.429 3.962l6.912-4.131v-6.579zm19.517 0h-8.342v6.579l6.913 4.131c.898-.98 1.429-2.357 1.429-3.962zm-48.956.484h-.904v6.748c0 .784.125 1.51.354 2.163.355-.77.55-1.664.55-2.647zm39.649-.484h-.904v6.748c0 .888.16 1.704.452 2.421.293-.717.452-1.533.452-2.421z"/><path d="m612.802 496.46v16.939c0 3.839-1.216 7.191-3.301 9.67l3.301 1.973v2.482l-4.852-2.904c-2.234 1.873-5.117 2.954-8.389 2.954-4.169 0-7.719-1.794-10.077-4.764-2.358 2.97-5.907 4.764-10.077 4.764-3.271 0-6.155-1.081-8.388-2.954l-4.853 2.904v-2.482l3.301-1.973c-2.084-2.479-3.301-5.831-3.301-9.67v-16.939zm-158.814 0v16.939c0 3.839-1.217 7.191-3.301 9.67l3.301 1.973v2.482l-4.853-2.904c-2.233 1.873-5.117 2.954-8.388 2.954-4.17 0-7.719-1.794-10.077-4.764-2.358 2.97-5.908 4.764-10.077 4.764-3.272 0-6.155-1.081-8.389-2.954l-4.852 2.904v-2.482l3.301-1.973c-2.085-2.479-3.301-5.831-3.301-9.67v-16.939zm119.058 26.947c1.766 1.249 3.931 1.951 6.345 1.951 3.722 0 6.855-1.672 8.829-4.46-.889-1.631-1.479-3.502-1.709-5.546zm-158.814 0c1.765 1.249 3.931 1.951 6.344 1.951 3.723 0 6.856-1.672 8.829-4.46-.888-1.631-1.479-3.502-1.709-5.546zm32.876 0-13.465-8.055c-.23 2.044-.82 3.915-1.709 5.546 1.974 2.788 5.107 4.46 8.829 4.46 2.414 0 4.579-.702 6.345-1.951zm158.814 0-13.464-8.055c-.23 2.044-.821 3.915-1.709 5.546 1.973 2.788 5.106 4.46 8.829 4.46 2.413 0 4.579-.702 6.344-1.951zm-196.472-24.765v14.674c0 3.491 1.155 6.485 3.108 8.615l15.03-8.981v-14.308zm42.439 0h-18.138v14.308l15.031 8.981c1.953-2.13 3.107-5.124 3.107-8.615zm116.376 0v14.674c0 3.491 1.154 6.485 3.107 8.615l15.031-8.981v-14.308zm42.439 0h-18.138v14.308l15.03 8.981c1.953-2.13 3.108-5.124 3.108-8.615zm-20.237 0h-1.965v14.674c0 1.932.347 3.706.982 5.265.636-1.559.983-3.333.983-5.265zm-158.815 0h-1.965v14.674c0 1.932.347 3.706.983 5.265.635-1.559.982-3.333.982-5.265zm157.832-61.16h.05c11.811 0 21.137 7.516 23.427 18.634.409 1.834.623 3.761.623 5.761v.05.05c0 13.691-10.027 23.968-24.051 23.968-13.755 0-23.665-9.934-24.04-23.185-.018-.406-.027-.815-.027-1.227 0-14.024 10.327-24.051 23.968-24.051zm-158.814 0h.05c5.915 0 11.206 1.885 15.304 5.165 5.721 4.294 9.196 11.17 9.196 19.23v.05.05c0 13.691-10.027 23.968-24.051 23.968-5.81 0-10.934-1.772-14.945-4.82-5.891-4.237-9.572-11.198-9.572-19.592 0-14.024 10.327-24.051 23.968-24.051zm-62.244 1.127h16.939c3.839 0 7.191 1.217 9.67 3.301l1.973-3.301h2.482l-2.904 4.853c1.873 2.233 2.954 5.117 2.954 8.389 0 4.169-1.794 7.719-4.764 10.076 2.97 2.358 4.764 5.908 4.764 10.077 0 3.272-1.081 6.156-2.954 8.389l2.904 4.853h-2.482l-1.973-3.302c-2.479 2.085-5.831 3.302-9.67 3.302h-16.939zm89.626 0h33.661l5.762 13.508h5.962l5.732-13.508h1.882l5.885 13.508h6.209l5.861-13.508h33.661v2.082h-15.207v42.473h15.207v2.082h-33.661l-5.861-13.508h-6.209l-5.885 13.508h-1.882l-5.732-13.508h-5.962l-5.762 13.508h-33.661v-2.082h15.206v-42.473h-15.206zm166.408 0h16.939c3.839 0 7.191 1.217 9.67 3.301l1.973-3.301h2.482l-2.904 4.853c1.873 2.233 2.954 5.117 2.954 8.389 0 4.169-1.794 7.719-4.764 10.076 2.97 2.358 4.764 5.908 4.764 10.077 0 3.272-1.081 6.156-2.954 8.389l2.904 4.853h-2.482l-1.973-3.302c-2.479 2.085-5.831 3.302-9.67 3.302h-16.939zm-13.116 22.253c-.523-11.948-9.466-20.804-21.811-20.804-12.708 0-21.812 9.453-21.836 21.869.004 1.918.224 3.764.641 5.517 2.423 9.527 10.7 15.904 21.146 15.925 12.483-.024 21.869-9.127 21.869-21.836 0-.225-.003-.449-.009-.671zm-167.541-17.077c-3.489-2.369-7.801-3.727-12.634-3.727-12.708 0-21.812 9.453-21.836 21.869.014 7.031 2.938 13.111 7.781 17.064 3.674 2.776 8.345 4.368 13.556 4.378 12.483-.024 21.869-9.127 21.869-21.836 0-7.592-3.373-13.897-8.736-17.748zm31.637-3.094v42.473h14.825l9.01-21.237-9.01-21.236zm55.024 0-9.253 21.236 9.253 21.237h14.814v-42.473zm96.178 24.318v18.138h14.674c3.491 0 6.485-1.155 8.615-3.108l-8.981-15.03zm-256.034 0v18.138h14.674c3.491 0 6.485-1.155 8.615-3.108l-8.981-15.03zm144.032 6.729h-8.873l4.379 10.342zm134.258-8.546c-1.631.888-3.502 1.479-5.546 1.709l8.055 13.464c1.249-1.765 1.951-3.931 1.951-6.344 0-3.723-1.672-6.856-4.46-8.829zm-256.034 0c-1.631.888-3.502 1.479-5.547 1.709l8.056 13.464c1.249-1.765 1.951-3.931 1.951-6.344 0-3.723-1.672-6.856-4.46-8.829zm105.464 6.497h4.24l-2.122-5.003zm6.572-15.523-3.286 7.761 3.286 7.762h10.63l3.373-7.762-3.373-7.761zm15.155 10.413-2.226 5.11h4.447zm-149.447-3.634v1.965h14.674c1.932 0 3.706-.347 5.265-.983-1.559-.635-3.333-.982-5.265-.982zm256.034 0v1.965h14.674c1.932 0 3.706-.347 5.265-.983-1.559-.635-3.333-.982-5.265-.982zm24.765-15.456-8.055 13.465c2.044.23 3.915.821 5.546 1.709 2.788-1.973 4.46-5.107 4.46-8.829 0-2.413-.702-4.579-1.951-6.345zm-256.034 0-8.056 13.465c2.045.23 3.916.821 5.547 1.709 2.788-1.973 4.46-5.107 4.46-8.829 0-2.413-.702-4.579-1.951-6.345zm122.456 8.677 2.226 5.11 2.221-5.11zm-19.501 0 2.118 5.002 2.122-5.002zm-127.72-13.458v18.138h14.308l8.981-15.031c-2.13-1.953-5.124-3.107-8.615-3.107zm256.034 0v18.138h14.308l8.981-15.031c-2.13-1.953-5.124-3.107-8.615-3.107zm-120.875 11.409h8.873l-4.494-10.342zm-98.415-88.404v-33.661h2.082v15.206h42.472v-15.206h2.082v33.661l-13.508 5.762v5.962l13.508 5.732v1.882l-13.508 5.885v6.209l13.508 5.861v33.661h-2.082v-15.207h-42.472v15.207h-2.082v-33.661l13.507-5.861v-6.209l-13.507-5.885v-1.882l13.507-5.732v-5.962zm158.814 0v-33.661h2.082v15.206h42.472v-15.206h2.082v33.661l-13.507 5.762v5.962l13.507 5.732v1.882l-13.507 5.885v6.209l13.507 5.861v33.661h-2.082v-15.207h-42.472v15.207h-2.082v-33.661l13.508-5.861v-6.209l-13.508-5.885v-1.882l13.508-5.732v-5.962zm-114.26 38.751-21.236-9.253-21.236 9.253v14.814h42.472zm158.814 0-21.236-9.253-21.236 9.253v14.814h42.472zm-187.812-8.188 5.11-2.221-5.11-2.226zm158.815 0 5.11-2.221-5.11-2.226zm15.523-4.447-5.11 2.226 5.11 2.221zm-158.815 0-5.11 2.226 5.11 2.221zm-15.523-12.929v10.63l7.762 3.373 7.761-3.373v-10.63l-7.761-3.286zm158.815 0v10.63l7.761 3.373 7.762-3.373v-10.63l-7.762-3.286zm-141.243.867v8.873l10.342-4.494zm-29.963 4.379 10.342 4.494v-8.873zm188.778-4.379v8.873l10.342-4.494zm-29.963 4.379 10.342 4.494v-8.873zm12.391-7.578 5.002-2.122-5.002-2.118zm-158.815 0 5.003-2.122-5.003-2.118zm169.335-2.122 5.003 2.122v-4.24zm-158.814 0 5.002 2.122v-4.24zm-23.995-25.006v14.825l21.236 9.01 21.236-9.01v-14.825zm158.814 0v14.825l21.236 9.01 21.236-9.01v-14.825zm-137.079-68.6c14.024 0 24.051 10.277 24.051 23.968v.05.05c0 8.74-4.086 16.089-10.691 20.261-3.85 2.589-8.581 4.051-13.809 4.051h-.05-.05c-13.691 0-23.968-10.027-23.968-24.051 0-9.266 4.508-16.787 11.501-20.823 3.674-2.237 8.099-3.506 13.016-3.506zm158.364 0c14.024 0 24.051 10.277 24.051 23.968v.05.05c0 2.363-.299 4.624-.865 6.75-2.645 10.528-11.717 17.562-23.185 17.562h-.05-.05c-13.691 0-23.968-10.027-23.968-24.051 0-.481.013-.957.037-1.427.507-13.109 10.373-22.902 24.03-22.902zm34.927.7h16.939c3.839 0 7.191 1.216 9.67 3.301l1.973-3.301h2.482l-2.904 4.852c1.873 2.234 2.954 5.117 2.954 8.389 0 4.17-1.794 7.719-4.764 10.077 2.97 2.358 4.764 5.907 4.764 10.077 0 3.272-1.081 6.155-2.954 8.388l2.904 4.853h-2.482l-1.973-3.301c-2.479 2.084-5.831 3.301-9.67 3.301h-16.939zm-256.034 0h16.939c3.839 0 7.191 1.216 9.67 3.301l1.973-3.301h2.482l-2.904 4.852c1.873 2.234 2.954 5.117 2.954 8.389 0 4.17-1.794 7.719-4.764 10.077 2.97 2.358 4.764 5.907 4.764 10.077 0 3.272-1.081 6.155-2.954 8.388l2.904 4.853h-2.482l-1.973-3.301c-2.479 2.084-5.831 3.301-9.67 3.301h-16.939zm89.626 0h33.661l5.762 13.507h5.962l5.732-13.507h1.882l5.885 13.507h6.209l5.861-13.507h33.661v2.082h-15.207v42.472h15.207v2.082h-33.661l-5.861-13.508h-6.209l-5.885 13.508h-1.882l-5.732-13.508h-5.962l-5.762 13.508h-33.661v-2.082h15.206v-42.472h-15.206zm-27.382 1.793c-4.673.009-8.925 1.304-12.413 3.593-5.521 3.897-8.909 10.364-8.924 17.932.024 12.416 9.128 21.869 21.836 21.869 4.019 0 7.677-.939 10.803-2.618 6.432-3.657 10.567-10.504 10.567-18.94 0-12.708-9.453-21.812-21.869-21.836zm158.814 0c-10.006.019-18.088 5.936-20.848 14.885-.609 2.08-.934 4.308-.939 6.64.024 12.416 9.128 21.869 21.836 21.869 12.291 0 21.21-8.78 21.804-20.651.011-.301.016-.603.016-.907 0-12.708-9.452-21.812-21.869-21.836zm-59.02.289-9.253 21.236 9.253 21.236h14.814v-42.472zm-40.199 42.472 9.01-21.236-9.01-21.236h-14.825v42.472zm136.377-18.155v18.138h14.674c3.491 0 6.485-1.154 8.615-3.107l-8.981-15.031zm-256.034 0v18.138h14.674c3.491 0 6.485-1.154 8.615-3.107l-8.981-15.031zm144.032 6.729h-8.873l4.379 10.342zm-121.776-8.546c-1.631.889-3.502 1.479-5.547 1.709l8.056 13.465c1.249-1.766 1.951-3.931 1.951-6.345 0-3.722-1.672-6.855-4.46-8.829zm256.034 0c-1.631.889-3.502 1.479-5.546 1.709l8.055 13.465c1.249-1.766 1.951-3.931 1.951-6.345 0-3.722-1.672-6.855-4.46-8.829zm-150.57 6.497h4.24l-2.122-5.002zm6.572-15.523-3.286 7.762 3.286 7.761h10.63l3.373-7.761-3.373-7.762zm15.155 10.413-2.226 5.11h4.447zm106.587-3.634v1.965h14.674c1.932 0 3.706-.347 5.265-.982-1.559-.636-3.333-.983-5.265-.983zm-256.034 0v1.965h14.674c1.932 0 3.706-.347 5.265-.982-1.559-.636-3.333-.983-5.265-.983zm280.799-15.455-8.055 13.464c2.044.23 3.915.821 5.546 1.709 2.788-1.973 4.46-5.106 4.46-8.829 0-2.413-.702-4.579-1.951-6.344zm-256.034 0-8.056 13.464c2.045.23 3.916.821 5.547 1.709 2.788-1.973 4.46-5.106 4.46-8.829 0-2.413-.702-4.579-1.951-6.344zm122.456 8.676 2.226 5.11 2.221-5.11zm-19.501 0 2.118 5.003 2.122-5.003zm128.314-13.458v18.138h14.308l8.981-15.03c-2.13-1.953-5.124-3.108-8.615-3.108zm-256.034 0v18.138h14.308l8.981-15.03c-2.13-1.953-5.124-3.108-8.615-3.108zm135.159 11.409h8.873l-4.494-10.341zm107.035-52.621v16.939c0 3.839-1.216 7.191-3.301 9.67l3.301 1.973v2.482l-4.852-2.904c-2.234 1.873-5.117 2.954-8.389 2.954-4.169 0-7.719-1.794-10.077-4.764-2.358 2.97-5.907 4.764-10.077 4.764-3.271 0-6.155-1.081-8.388-2.954l-4.853 2.904v-2.482l3.301-1.973c-2.084-2.479-3.301-5.831-3.301-9.67v-16.939zm-158.814 0v16.939c0 3.839-1.217 7.191-3.301 9.67l3.301 1.973v2.482l-4.853-2.904c-2.233 1.873-5.117 2.954-8.388 2.954-4.17 0-7.719-1.794-10.077-4.764-2.358 2.97-5.908 4.764-10.077 4.764-3.272 0-6.155-1.081-8.389-2.954l-4.852 2.904v-2.482l3.301-1.973c-2.085-2.479-3.301-5.831-3.301-9.67v-16.939zm-39.756 26.947c1.765 1.249 3.931 1.951 6.344 1.951 3.723 0 6.856-1.672 8.829-4.46-.888-1.631-1.479-3.502-1.709-5.547zm32.876 0-13.465-8.056c-.23 2.045-.82 3.916-1.709 5.547 1.974 2.788 5.107 4.46 8.829 4.46 2.414 0 4.579-.702 6.345-1.951zm158.814 0-13.464-8.056c-.23 2.045-.821 3.916-1.709 5.547 1.973 2.788 5.106 4.46 8.829 4.46 2.413 0 4.579-.702 6.344-1.951zm-32.876 0c1.766 1.249 3.931 1.951 6.345 1.951 3.722 0 6.855-1.672 8.829-4.46-.889-1.631-1.479-3.502-1.709-5.547zm-163.596-24.765v14.674c0 3.491 1.155 6.485 3.108 8.615l15.03-8.981v-14.308zm42.439 0h-18.138v14.308l15.031 8.981c1.953-2.13 3.107-5.124 3.107-8.615zm116.376 0v14.674c0 3.491 1.154 6.485 3.107 8.615l15.031-8.981v-14.308zm42.439 0h-18.138v14.308l15.03 8.981c1.953-2.13 3.108-5.124 3.108-8.615zm-29.527 0h7.325v14.674c0 1.932.347 3.706.982 5.265.636-1.559.983-3.333.983-5.265v-14.674zm-151.49 0v14.674c0 1.932.347 3.706.983 5.265.635-1.559.982-3.333.982-5.265v-14.674z"/><path d="m672.858 592.068h15.389c3.723 0 7.008 1.098 9.53 3.001l2.611-4.369h2.588l-3.517 5.878c2.252 2.397 3.569 5.611 3.569 9.298 0 3.962-1.554 7.387-4.172 9.824 2.618 2.437 4.172 5.862 4.172 9.824 0 3.687-1.317 6.901-3.569 9.298l3.517 5.878h-2.588l-2.611-4.369c-2.522 1.903-5.807 3.001-9.53 3.001h-15.389v1.368h-2.275v-50h2.275zm103.448 25.236h-21.815v19.84h23.621v2.188h-23.621v1.368h-2.275v-50h2.275v1.368h23.621v2.188h-23.621v19.84h21.815zm-59.47-.117v19.957h23.882v1.35h.764v2.206h-26.922v-50h26.922v2.206h-.764v1.35h-23.882v19.957h22.075v2.974zm73.156 0v19.957h23.882v1.35h.764v2.206h-26.921v-50h26.921v2.206h-.764v1.35h-23.882v19.957h22.076v2.974zm35.38-26.487h2.276v1.368h15.388c3.723 0 7.008 1.098 9.53 3.001l2.611-4.369h2.588l-3.517 5.878c2.252 2.397 3.569 5.611 3.569 9.298 0 3.962-1.554 7.387-4.172 9.824 2.618 2.437 4.172 5.862 4.172 9.824 0 3.687-1.317 6.901-3.569 9.298l3.517 5.878h-2.588l-2.611-4.369c-2.522 1.903-5.807 3.001-9.53 3.001h-15.388v1.368h-2.276zm-152.514 28.897v17.547h15.302c3.355 0 6.269-1.023 8.444-2.776l-8.825-14.771zm154.79 0v17.547h15.301c3.355 0 6.27-1.023 8.444-2.776l-8.825-14.771zm-130.6-2.482c-1.915 1.255-4.211 2.082-6.765 2.37l7.942 13.275c1.587-1.941 2.493-4.42 2.493-7.219 0-3.422-1.356-6.367-3.67-8.426zm154.79 0c-1.916 1.255-4.212 2.082-6.766 2.37l7.942 13.275c1.587-1.941 2.493-4.42 2.493-7.219 0-3.422-1.356-6.367-3.669-8.426zm-178.98-3.124v3.418h15.302c2.626 0 4.972-.616 6.905-1.709-1.933-1.093-4.279-1.709-6.905-1.709zm154.79 0v3.418h15.301c2.626 0 4.973-.616 6.906-1.709-1.933-1.093-4.28-1.709-6.906-1.709zm25.366-15.351-7.942 13.275c2.554.288 4.85 1.115 6.766 2.37 2.313-2.059 3.669-5.004 3.669-8.426 0-2.799-.906-5.278-2.493-7.219zm-154.789 0-7.942 13.275c2.554.288 4.85 1.115 6.765 2.37 2.314-2.059 3.67-5.004 3.67-8.426 0-2.799-.906-5.278-2.493-7.219zm-25.367-4.384v17.547h14.921l8.825-14.771c-2.175-1.753-5.089-2.776-8.444-2.776zm154.79 0v17.547h14.92l8.825-14.771c-2.174-1.753-5.089-2.776-8.444-2.776z"/><path d="m274.13 268.734 6.08 34.39h1.439l13.212-30.172 13.297 30.172h1.464l6.018-34.39h.06l-.03-.171.03-.172h-.061l-6.079-34.391h-1.439l-13.213 30.172-13.297-30.172h-1.463l-6.019 34.391h-.06l.03.17-.03.173zm-9.575 0v34.39h1.625v-34.733h-.062v-34.391h-1.625v34.734zm-49.273 0v34.39h1.625v-34.733h-.062v-34.391h-1.625v34.734zm-49.521 0 6.079 34.39h1.439l13.213-30.172 13.297 30.172h1.463l6.019-34.39h.06l-.03-.171.03-.172h-.061l-6.08-34.391h-1.439l-13.212 30.172-13.297-30.172h-1.464l-6.018 34.391h-.06l.03.17-.03.173zm88.113-34.734h-1.6v.085l-11.574 15.848-11.574-15.848v-.085h-1.6v69.124h1.6v-.084l11.574-15.848 11.574 15.848v.084h1.6zm-1.662 31.696-10.525-14.412 10.525-14.395zm-23.024-28.807 10.525 14.395-10.525 14.412zm-23.537 31.674-5.53 31.445-13.295-30.042h-.608l-13.261 30.005-5.577-31.41 5.53-31.445 13.295 30.042h.608l13.26-30.004zm108.369 0-5.53 31.445-13.295-30.042h-.608l-13.26 30.005-5.578-31.41 5.53-31.445 13.295 30.042h.608l13.261-30.004zm-61.808.184-11.512 15.744-11.512-15.744v-.37l11.512-15.744 11.512 15.744zm-23.024 2.682 10.525 14.412-10.525 14.395zm12.499 14.412 10.525-14.412v28.807z"/><path d="m230.947 369.222 8.097-19.277h1.816l8.43 20.579 8.638-20.579h2.335l-9.823 23.387 1.168 2.851 6.32-15.056h2.335l-7.504 17.866 1.238 3.021 3.931-9.366h2.335l-5.115 12.178 4.312 10.526h-2.319l-3.158-7.752-1.224 2.914 6.701 16.359h-2.319l-5.54-13.601-1.161 2.764 9.02 22.019h-2.319l-7.853-19.277-8.096 19.277h-1.816l-8.43-20.579-8.638 20.579h-2.335l9.822-23.387-1.168-2.851-6.319 15.056h-2.335l7.503-17.866-1.237-3.021-3.931 9.366h-2.335l5.114-12.178-4.312-10.526h2.319l3.158 7.752 1.224-2.914-6.701-16.359h2.319l5.541 13.601 1.16-2.764-9.02-22.019h2.319l7.853 19.277zm35.253 48.833v-68.11h26.774v68.11zm-77.84 0v-68.11h26.773v68.11zm-8.384-68.11v68.11h-24.309v-68.11zm121.382 68.11v-68.11h24.309v68.11zm22.184-11.521h-20.06v9.494h20.06zm-145.691 0h-20.06v9.494h20.06zm112.998 0h-.227v.339h-22.298v9.123h22.525zm-77.84 0h-.227v.339h-22.298v9.123h22.525zm20.325-14.748-1.24 2.954 8.157 20.022 7.89-18.799-1.235-3.033-5.714 13.604h-1.816zm-55.483 3.566h-20.06v9.155h20.06zm145.691 0h-20.06v9.155h20.06zm-32.693 0h-22.525v.016h20.612v2.011h-20.612v7.096h22.525zm-77.84 0h-22.525v.016h20.612v2.011h-20.612v7.096h22.525zm22.644-9.089-1.177 2.803 5.775 14.175 5.509-13.124-1.167-2.863-3.401 8.098h-1.816zm87.889-11.588h-20.06v18.65h20.06zm-145.691 0h-20.06v18.65h20.06zm12.633.033v9.477h20.612v2.011h-20.612v7.096h22.525v-9.477h-20.611v-2.011h20.611v-7.096zm77.84 0v9.477h20.612v2.011h-20.612v7.096h22.525v-9.477h-20.611v-2.011h20.611v-7.096zm-20.273 15.495 1.239 3.024 1.163-2.772-1.235-3.031zm-11.263-6.645 3.463 8.5 3.197-7.616-3.463-8.5zm-7.006 5.507 1.165 2.86 1.237-2.946-1.168-2.852zm20.588-4.383 1.238 3.022 1.227-2.923-1.234-3.03zm-4.638-.14 1.169 2.855 1.17-2.788-1.165-2.861zm-13.568-1.151 1.166 2.861 1.174-2.794-1.17-2.855zm-4.763-.172 1.234 3.03 1.23-2.931-1.238-3.022zm20.65-4.198 1.169 2.852 1.233-2.938-1.165-2.86zm-13.575-1.138 1.166 2.863 3.402-8.098h1.816l3.723 9.089 1.177-2.803-5.775-14.175zm-4.694-.338 1.235 3.031 1.167-2.779-1.238-3.024zm2.312-5.508 1.236 3.033 5.714-13.604h1.816l6.041 14.748 1.24-2.954-8.156-20.022zm71.388-8.544v9.155h20.06v-9.155zm-35.158.032v9.123h22.525v-.016h-20.611v-2.011h20.611v-7.096zm-77.84 0v9.123h22.525v-.016h-20.611v-2.011h20.611v-7.096zm-32.693-.032v9.155h20.06v-9.155zm110.533-11.489v9.462h.227v-.339h22.298v-9.123zm-77.84 0v9.462h.227v-.339h22.298v-9.123zm112.998-.032v9.494h20.06v-9.494zm-145.691 0v9.494h20.06v-9.494z"/><path d="m599.277 126.121c5.327-5.661 13.006-9.094 22.008-9.094 17.463 0 29.948 12.858 29.948 29.968 0 1.23-.065 2.438-.193 3.622.63 2.509.96 5.164.96 7.927 0 7.303-2.291 13.849-6.284 18.946l6.284 6.939h-3.401l-4.539-5.011c-5.326 5.661-13.006 9.094-22.007 9.094-17.463 0-29.948-12.858-29.948-29.968 0-1.23.065-2.439.193-3.622-.63-2.51-.96-5.164-.96-7.927 0-7.304 2.291-13.849 6.284-18.946l-6.284-6.939h3.401zm-219.337 0c5.326-5.661 13.006-9.094 22.007-9.094 17.463 0 29.948 12.858 29.948 29.968 0 1.23-.065 2.438-.193 3.622.63 2.509.96 5.164.96 7.927 0 7.303-2.291 13.849-6.284 18.946l6.284 6.939h-3.401l-4.538-5.011c-5.327 5.661-13.006 9.094-22.008 9.094-17.463 0-29.948-12.858-29.948-29.968 0-1.23.065-2.439.193-3.622-.63-2.51-.96-5.164-.96-7.927 0-7.304 2.291-13.849 6.284-18.946l-6.284-6.939h3.401zm96.225 20.27h3.598l7.174-16.82h2.903l-10.362 24.423 9.574 21.973h-2.945l-7.297-16.819h-1.519l-12.089 28.493h-2.344l-12.415-28.493h-3.597l-7.174 16.819h-2.903l10.362-24.422-9.574-21.974h2.945l7.296 16.82h1.519l12.09-28.493h2.343zm97.392 0h3.597l7.174-16.82h2.903l-10.362 24.423 9.574 21.973h-2.945l-7.296-16.819h-1.519l-12.09 28.493h-2.343l-12.415-28.493h-3.598l-7.174 16.819h-2.903l10.362-24.422-9.574-21.974h2.945l7.297 16.82h1.519l12.089-28.493h2.344zm-62.501 3.198v-20.018h2.779v17.301l18.458-28.974h3.028l-21.486 33.73v.832l22.15 35.181h-3.028l-20.013-31.691v20.017h-2.779v-17.3l-18.458 28.974h-3.028l21.486-33.73v-.832l-22.15-35.181h3.028zm-135.342 12.387c1.536 13.833 12.343 23.861 27.001 23.861 8.261 0 15.299-3.208 20.145-8.476l-4.517-4.988c-4.612 2.849-10.19 4.465-16.396 4.465-11.774 0-21.286-5.846-26.233-14.862zm219.338 0c1.536 13.833 12.343 23.861 27.001 23.861 8.261 0 15.299-3.208 20.145-8.476l-4.517-4.988c-4.612 2.849-10.19 4.465-16.396 4.465-11.775 0-21.286-5.846-26.233-14.862zm-120.672-2.828h-21.064l10.669 24.551zm97.391 0h-21.064l10.669 24.551zm-141.869-.893c-1.931 5.132-5.193 9.484-9.456 12.684l4.042 4.464c3.445-4.586 5.416-10.402 5.416-16.859 0-.097-.001-.194-.002-.289zm219.338 0c-1.931 5.132-5.193 9.484-9.456 12.684l4.042 4.464c3.445-4.586 5.416-10.402 5.416-16.859 0-.097-.001-.194-.002-.289zm-220.341-7.427c-3.101-11.461-13.111-19.452-26.184-19.452-5.475 0-10.411 1.391-14.528 3.851l15.855 17.51h-3.401l-14.575-16.095c-5.62 4.17-9.355 10.534-10.303 18.068 3.101 11.462 13.111 19.453 26.184 19.453 5.475 0 10.411-1.391 14.529-3.852l-15.856-17.509h3.401l14.575 16.095c5.62-4.17 9.355-10.535 10.303-18.069zm219.338 0c-3.101-11.461-13.111-19.452-26.184-19.452-5.475 0-10.411 1.391-14.529 3.851l15.856 17.51h-3.401l-14.575-16.095c-5.62 4.17-9.355 10.534-10.303 18.068 3.101 11.462 13.111 19.453 26.184 19.453 5.475 0 10.411-1.391 14.528-3.852l-15.855-17.509h3.401l14.575 16.095c5.62-4.17 9.355-10.535 10.303-18.069zm-102.938 5.769h1.424l-.722-1.658zm-97.391 0h1.424l-.722-1.658zm3.241-7.655-1.119 2.643 2.178 5.012h23.252l1.119-2.644-2.178-5.011zm97.391 0-1.119 2.643 2.178 5.012h23.252l1.119-2.644-2.178-5.011zm26.128 0 .722 1.657.702-1.657zm-97.391 0 .722 1.657.702-1.657zm-97.103-18.806c-3.445 4.586-5.416 10.402-5.416 16.859 0 .097.001.194.002.289 1.931-5.132 5.193-9.485 9.456-12.685zm219.338 0c-3.445 4.586-5.416 10.402-5.416 16.859 0 .097.001.194.002.289 1.931-5.132 5.193-9.485 9.456-12.685zm-147.283 16.255h21.064l-10.669-24.551zm97.391 0h21.064l-10.669-24.551zm98.666-2.828c-1.536-13.833-12.343-23.861-27.001-23.861-8.261 0-15.299 3.208-20.145 8.476l4.517 4.988c4.612-2.85 10.19-4.466 16.396-4.466 11.774 0 21.286 5.847 26.233 14.863zm-219.338 0c-1.536-13.833-12.343-23.861-27.001-23.861-8.261 0-15.299 3.208-20.145 8.476l4.517 4.988c4.612-2.85 10.19-4.466 16.396-4.466 11.775 0 21.286 5.847 26.233 14.863z"/><path d="m282.083 485.053h-.113c3.091-8.787 10.848-14.227 20.763-14.227.127 0 .254.001.381.002.127-.001.256-.002.385-.002 10.155 0 18.058 5.681 21.1 15.016h-.206c.851 2.524 1.307 5.286 1.307 8.225 0 3.215-.543 6.214-1.552 8.916h.113c-3.09 8.788-10.848 14.228-20.762 14.228-.128 0-.254-.001-.382-.003-.127.002-.255.003-.384.003-10.156 0-18.059-5.682-21.101-15.017h.207c-.852-2.524-1.308-5.286-1.308-8.224 0-3.216.543-6.215 1.552-8.917zm-124.831 0h-.113c3.09-8.787 10.848-14.227 20.762-14.227.128 0 .254.001.382.002.127-.001.255-.002.384-.002 10.156 0 18.059 5.681 21.101 15.016h-.207c.852 2.524 1.308 5.286 1.308 8.225 0 3.215-.543 6.214-1.552 8.916h.113c-3.091 8.788-10.848 14.228-20.763 14.228-.127 0-.254-.001-.381-.003-.127.002-.256.003-.385.003-10.155 0-18.058-5.682-21.1-15.017h.206c-.851-2.524-1.307-5.286-1.307-8.224 0-3.216.543-6.215 1.552-8.917zm51.899-13.567h2.108v45.065h-2.108zm58.778 0h2.109v45.065h-2.109zm-36.318 17.11 7.186-17.11h1.803l9.193 22.441 9.419-22.441h2.318l-10.596 25.227 8.127 19.838h-2.302l-6.97-17.11-7.186 17.11h-1.803l-9.193-22.441-9.419 22.441h-2.318l10.596-25.228-8.127-19.837h2.302zm40.638 27.955h-2.108v-45.065h2.108zm-58.778 0h-2.109v-45.065h2.109zm-35.188-43.646c-11.95.183-20.442 8.867-20.442 21.065 0 12.199 8.541 20.979 20.445 21.162 11.95-.183 20.442-8.868 20.442-21.065 0-12.2-8.541-20.979-20.445-21.162zm124.831 0c-11.95.183-20.442 8.867-20.442 21.065 0 12.199 8.541 20.979 20.445 21.162 11.95-.183 20.442-8.868 20.442-21.065 0-12.2-8.541-20.979-20.445-21.162zm-70.365 18.484 8.919 21.893 6.983-16.635-8.919-21.893z"/><path d="m305.041 601.057c.119-6.574 5.283-11.287 12.329-11.287h14.737v40.573h-.002c-.12 6.574-5.284 11.287-12.33 11.287h-14.737v-40.573zm-155.746 0c.12-6.574 5.284-11.287 12.33-11.287h14.737v40.573h-.003c-.119 6.574-5.283 11.287-12.329 11.287h-14.737v-40.573zm77.057 0c3.177-6.862 10.066-11.287 18.672-11.287h11.954v40.573h-1.93c-3.177 6.862-10.066 11.287-18.672 11.287h-11.954v-40.573zm-14.946 11.751h.476l5.099-11.751h2.057l-6.393 14.672 6.201 14.614h-2.029l-5.012-11.751h-.407l-10.038 23.038h-1.638l-9.775-23.038h-.476l-5.098 11.751h-2.058l6.393-14.672-6.2-14.614h2.028l5.013 11.751h.407l10.038-23.038h1.637zm80.047 0h.476l5.098-11.751h2.058l-6.393 14.672 6.2 14.614h-2.028l-5.013-11.751h-.407l-10.038 23.038h-1.637l-9.775-23.038h-.476l-5.099 11.751h-2.057l6.393-14.672-6.201-14.614h2.029l5.012 11.751h.407l10.038-23.038h1.638zm-65.133 6.112v20.899h10.013c7.491 0 13.537-3.69 16.569-9.476h-7.878c-8.61 0-15.535-4.485-18.704-11.423zm86.809 1.568-5.888 9.855h-.304v9.461h12.766c6.115 0 10.477-4.071 10.477-9.679 0-5.579-4.319-9.637-10.477-9.637zm-155.745 0-5.888 9.855h-.305v9.461h12.767c6.115 0 10.476-4.071 10.476-9.679 0-5.579-4.318-9.637-10.476-9.637zm52.003-1.896h-17.402l8.588 20.284zm80.047 0h-17.403l8.588 20.284zm-61.76-15.724c-.844 2.167-1.3 4.572-1.3 7.145 0 10.709 7.869 18.519 18.693 18.519h8.659c.844-2.167 1.3-4.572 1.3-7.145 0-10.709-7.869-18.519-18.693-18.519zm-76.483 17.62v6.755l4.042-6.755zm155.746 0v6.755l4.041-6.755zm18.138-7.751-3.601 6.02c3.777.425 6.876 2.265 8.735 4.999v-11.019zm-155.745 0-3.602 6.02c3.778.425 6.877 2.265 8.735 4.999v-11.019zm137.607 5.926h5.133l3.602-6.02c-3.778-.425-6.877-2.265-8.735-4.999zm10.824-5.926-3.541 5.926h5.165l3.54-5.926zm-166.57 5.926h5.134l3.601-6.02c-3.777-.425-6.876-2.265-8.735-4.999zm10.824-5.926-3.54 5.926h5.164l3.541-5.926zm29.177 1.854-.457 1.05.495 1.168h18.932l.456-1.05-.494-1.168zm80.046 0-.456 1.05.494 1.168h18.932l.457-1.05-.495-1.168zm.775-1.783h17.402l-8.588-20.284zm-80.047 0h17.403l-8.588-20.284zm63.114-.328v-20.899h-10.013c-7.491 0-13.537 3.69-16.569 9.476h7.878c8.61 0 15.535 4.485 18.704 11.423zm75.129-11.423v-9.461h-12.767c-6.115 0-10.476 4.071-10.476 9.679 0 5.579 4.318 9.637 10.476 9.637h6.574l5.888-9.855zm-155.746 0v-9.461h-12.766c-6.115 0-10.477 4.071-10.477 9.679 0 5.579 4.319 9.637 10.477 9.637h6.574l5.888-9.855zm155.746 3.1-4.042 6.755h4.042zm-155.746 0-4.041 6.755h4.041z"/></g></svg>